<?xml version="1.0" encoding="utf-8"?>
<!-- Generator: Adobe Illustrator 19.0.0, SVG Export Plug-In . SVG Version: 6.00 Build 0)  -->
<svg version="1.1" id="Layer_1" xmlns="http://www.w3.org/2000/svg" xmlns:xlink="http://www.w3.org/1999/xlink" x="0px" y="0px"
	 viewBox="-177 127 444.4 48" style="enable-background:new -177 127 444.4 48;" xml:space="preserve">
<style type="text/css">
	.st0{enable-background:new    ;}
	.st1{fill:#FFFFFF;}
	.st2{fill:#F47D20;}
</style>
<g id="department_x2F_unit_live_text">
	<g class="st0">
		<path class="st1" d="M0.9,158.6c0-0.4,0-2.5-0.1-2.8c0-0.4-0.2-0.4-0.6-0.4h-0.8c-0.1,0-0.1,0-0.1-0.1v-0.4c0-0.1,0-0.1,0.1-0.1
			c0.2,0,0.9,0,2.2,0c0.4,0,1.9,0,2.2,0c1.9,0,3.6,0.2,4.9,1.4c1,0.8,1.7,2.1,1.7,3.8c0,1.7-0.5,2.9-1.5,3.9
			c-1.4,1.6-3.5,1.6-4.7,1.6c-0.9,0-2.1,0-2.8,0c-1.3,0-1.9,0-2.1,0c-0.1,0-0.1,0-0.1-0.1V165c0-0.1,0-0.1,0.1-0.1h1
			c0.3,0,0.4-0.1,0.5-0.4c0-0.3,0.1-3.7,0.1-4.9V158.6z M2.3,160.1c0,0.2,0,2.7,0,3.7c0,0.3,0.1,0.5,0.3,0.8
			c0.2,0.3,0.8,0.5,1.6,0.5c1.5,0,2.8-0.7,3.5-1.6c0.6-0.8,1.1-2,1.1-3.4c0-1.2-0.5-2.5-1.2-3.3c-0.8-0.9-2.1-1.4-3.8-1.4
			c-0.3,0-0.9,0-1.2,0.2c-0.2,0.1-0.3,0.4-0.3,0.7c0,0.6,0,2.6,0,2.8V160.1z"/>
		<path class="st1" d="M12.7,161.5c0,0.1,0,0.4,0,0.7c0,1.5,0.9,2.6,2.1,2.6c0.9,0,1.6-0.5,1.8-1c0-0.1,0.1-0.1,0.1-0.1l0.2,0.1
			c0,0,0.1,0.1,0,0.2c-0.3,0.6-1,1.6-2.4,1.6c-0.9,0-1.8-0.3-2.4-1.1c-0.5-0.8-0.7-1.3-0.7-2.4c0-0.6,0.1-1.6,0.9-2.4
			c0.6-0.7,1.4-0.8,2.1-0.8c1.7,0,2.2,1.6,2.2,2.2c0,0.2-0.2,0.2-0.4,0.2H12.7z M15.1,161.1c0.3,0,0.4-0.1,0.4-0.2
			c0-0.3-0.2-1.3-1.2-1.3c-0.7,0-1.3,0.4-1.6,1.5H15.1z"/>
		<path class="st1" d="M23,161.7c0-1.1-0.2-1.4-0.5-1.6c-0.2-0.2-0.6-0.3-1-0.3c-0.4,0-1,0.2-1.4,0.9c-0.2,0.3-0.2,0.6-0.2,1v3
			c0,0.2,0.1,0.4,0.3,0.4h0.5c0.1,0,0.2,0,0.2,0.1v0.2c0,0.1,0,0.2-0.1,0.2c-0.1,0-0.5,0-1.4,0c-0.8,0-1.3,0-1.4,0
			c-0.1,0-0.1,0-0.1-0.1v-0.3c0-0.1,0-0.1,0.2-0.1h0.5c0.1,0,0.2-0.1,0.2-0.4c0-0.3,0-0.5,0-0.8v-2.7c0-0.3-0.1-0.6-0.4-0.8
			l-0.3-0.2c-0.1,0-0.1-0.1-0.1-0.1V160c0,0,0.1-0.1,0.1-0.1l1.3-0.7c0.1-0.1,0.2-0.1,0.3-0.1c0.1,0,0.1,0.1,0.1,0.2l0.1,0.9h0
			c0.4-0.6,1.3-1.1,2.2-1.1c0.8,0,1.4,0.5,1.7,1.2h0.1c0.5-0.6,1.3-1.2,2.2-1.2c0.5,0,1,0.1,1.4,0.5c0.3,0.4,0.7,0.7,0.7,1.8v3.3
			c0,0.2,0.1,0.3,0.3,0.3h0.4c0.1,0,0.2,0,0.2,0.1v0.3c0,0.1,0,0.2-0.1,0.2c-0.1,0-0.5,0-1.2,0c-0.8,0-1.3,0-1.4,0
			c-0.1,0-0.1,0-0.1-0.2v-0.3c0-0.1,0-0.1,0.2-0.1h0.4c0.2,0,0.3-0.1,0.3-0.3c0-0.3,0-0.9,0-1.2v-2.2c0-0.5-0.1-0.9-0.4-1.2
			c-0.3-0.2-0.7-0.3-1.1-0.3c-0.4,0-1.1,0.3-1.3,0.8c-0.2,0.4-0.2,0.8-0.2,1.5v2.6c0,0.2,0.1,0.3,0.3,0.3h0.5c0.1,0,0.2,0,0.2,0.1
			v0.2c0,0.1,0,0.2-0.1,0.2c-0.1,0-0.5,0-1.3,0c-0.8,0-1.3,0-1.4,0c-0.1,0-0.1,0-0.1-0.2v-0.2c0-0.1,0-0.2,0.1-0.2h0.4
			c0.2,0,0.3-0.1,0.3-0.3V161.7z"/>
		<path class="st1" d="M30.8,164.6c-0.7-0.8-0.8-1.4-0.8-2.4c0-0.8,0.4-1.7,1.3-2.4c0.8-0.6,1.5-0.7,2-0.7c0.8,0,1.6,0.4,2.1,0.9
			c0.7,0.7,1,1.5,1,2.4c0,1.6-1.5,3.3-3.3,3.3C32.4,165.7,31.5,165.4,30.8,164.6z M35.2,162.2c0-1.7-1.2-2.7-2-2.7
			c-0.4,0-0.8,0.1-1.2,0.5c-0.6,0.6-0.8,1.2-0.8,2.4c0,0.8,0.1,1.4,0.6,2.1c0.3,0.5,0.8,0.8,1.5,0.8
			C34.4,165.2,35.2,163.8,35.2,162.2z"/>
		<path class="st1" d="M37.9,169.1c-0.5-0.3-0.8-0.7-0.8-1.2c0-0.8,0.9-1.5,1.6-1.8V166c-0.6-0.1-1-0.6-1-1.1c0-0.7,0.8-1.2,1.4-1.4
			v0c-0.6-0.3-1.4-0.9-1.4-2.3c0-1,0.9-2.2,2.6-2.2c1.1,0,1.7,0.7,1.9,0.9c0.4-0.3,0.9-0.6,1.4-0.6c0.5,0,0.7,0.3,0.7,0.6
			c0,0.3-0.2,0.6-0.6,0.6c-0.3,0-0.4-0.1-0.5-0.2c-0.1-0.1-0.2-0.1-0.3-0.1c-0.1,0-0.3,0-0.5,0.1c0.1,0.3,0.2,0.6,0.2,1.1
			c0,0.6-0.2,1.2-0.6,1.6c-0.4,0.4-1.2,0.8-1.7,0.8c-0.3,0-0.5,0-0.8-0.1c-0.3,0.1-0.8,0.4-0.8,0.8c0,0.6,0.8,0.6,1.8,0.5
			c1.2-0.1,2,0.1,2.6,0.5c0.6,0.5,0.7,1.1,0.7,1.4c0,0.7-0.3,1.3-1,1.8c-0.4,0.3-1.3,0.7-2.6,0.7C39.5,169.6,38.6,169.5,37.9,169.1z
			 M42.9,167.6c0-0.9-0.7-1.6-2.2-1.5l-1.4,0.1c-0.5,0.1-1.2,0.6-1.2,1.4c0,0.4,0.3,0.8,0.6,1c0.5,0.3,1,0.4,2.1,0.4
			C41.3,169.1,42.9,168.7,42.9,167.6z M41.5,161.2c0-0.7-0.1-1-0.4-1.3c-0.2-0.2-0.5-0.3-0.7-0.3c-0.3,0-0.7,0.1-1.1,0.4
			c-0.5,0.5-0.5,1.2-0.5,1.8c0,0.5,0.2,1,0.5,1.3c0.3,0.3,0.5,0.4,0.9,0.4C41.1,163.4,41.5,162.1,41.5,161.2z"/>
		<path class="st1" d="M45.7,161.5c0-0.8-0.1-0.9-0.5-1.1l-0.3-0.1c-0.1,0-0.1,0-0.1-0.1V160c0-0.1,0-0.1,0.1-0.1l1.5-0.8
			c0.1,0,0.2-0.1,0.2-0.1c0.1,0,0.1,0.1,0.1,0.2l0.1,1.1h0.1c0.5-0.7,1.2-1.3,1.8-1.3c0.5,0,0.8,0.3,0.8,0.7c0,0.4-0.4,0.7-0.6,0.7
			c-0.2,0-0.3-0.1-0.4-0.1c-0.1-0.1-0.3-0.1-0.5-0.1c-0.2,0-0.6,0.2-0.9,0.6c-0.1,0.2-0.2,0.4-0.2,0.5v3.1c0,0.5,0.1,0.6,0.4,0.6
			h0.7c0.1,0,0.1,0,0.1,0.1v0.3c0,0.1,0,0.1-0.1,0.1c-0.1,0-0.8,0-1.6,0c-0.9,0-1.6,0-1.6,0c-0.1,0-0.1,0-0.1-0.2v-0.3
			c0-0.1,0-0.1,0.2-0.1h0.6c0.2,0,0.3-0.1,0.3-0.3c0-0.5,0-1,0-1.8V161.5z"/>
		<path class="st1" d="M54.9,164.8c0.2,0,0.5-0.1,0.5-0.2c0.1-0.1,0.1-0.1,0.1-0.1l0.2,0.1c0,0,0.1,0.1,0,0.3
			c-0.1,0.2-0.4,0.7-1.2,0.7c-0.5,0-0.9-0.4-1.1-1h0c-0.3,0.4-0.8,0.7-1.5,0.9c-0.3,0.1-0.6,0.1-0.9,0.1c-0.4,0-0.9-0.3-0.9-1.2
			c0-0.7,0.3-1.3,1.5-1.8c0.7-0.3,1.5-0.7,1.7-0.9v-1c0-0.3,0-0.6-0.2-0.8s-0.5-0.3-0.9-0.3c-0.3,0-0.8,0.1-1,0.3
			c-0.2,0.2-0.1,0.4-0.1,0.7c0,0.5-0.2,0.9-0.8,0.9c-0.2,0-0.4-0.1-0.4-0.5c0-0.5,0.4-1,1-1.4c0.6-0.4,1.2-0.5,1.8-0.5
			c0.7,0,1,0.2,1.2,0.4c0.3,0.3,0.3,0.7,0.3,1.1v3.2C54.4,164.6,54.6,164.8,54.9,164.8z M53.4,162.2c-0.5,0.4-2,0.7-2,2
			c0,0.6,0.3,0.8,0.8,0.8c0.4,0,1.2-0.5,1.2-0.9V162.2z"/>
		<path class="st1" d="M57.1,161.3c0-0.4-0.1-0.6-0.5-0.8l-0.3-0.2c-0.1,0-0.1-0.1-0.1-0.1V160c0,0,0-0.1,0.1-0.1l1.4-0.7
			c0.1-0.1,0.2-0.1,0.3-0.1c0.1,0,0.1,0.1,0.1,0.3l0.1,0.7h0c0.4-0.5,1.2-1,2.2-1c0.8,0,1.3,0.3,1.7,0.7c0.6,0.6,0.8,1.2,0.8,2.3
			c0,2-1.4,3.5-3.2,3.5c-0.4,0-1-0.1-1.5-0.3v3.2c0,0.4,0.1,0.5,0.3,0.5h0.7c0.1,0,0.1,0.1,0.1,0.1v0.3c0,0.1,0,0.1-0.1,0.1
			c-0.1,0-0.6,0-1.5,0c-0.9,0-1.4,0-1.5,0c-0.1,0-0.1,0-0.1-0.1v-0.3c0-0.1,0-0.1,0.2-0.1h0.6c0.3,0,0.3-0.2,0.3-0.4
			c0-0.3,0-1.1,0-2.6V161.3z M58.2,164c0,0.3,0,0.6,0.3,0.8c0.4,0.3,0.9,0.4,1.5,0.4c0.9,0,1.7-0.6,1.7-2.5c0-2.1-0.9-2.9-1.9-2.9
			c-0.6,0-1.2,0.4-1.6,1V164z"/>
		<path class="st1" d="M64.9,157.3c0-0.9-0.2-1.1-0.7-1.3l-0.3-0.1c-0.1,0-0.1,0-0.1-0.1v-0.1c0-0.1,0-0.1,0.2-0.1l1.6-0.8
			c0.1-0.1,0.2-0.1,0.3-0.1c0.1,0,0.2,0.1,0.1,0.4s0,3.3,0,4v1h0.1c0.5-0.6,1.4-1,2.1-1c0.6,0,1.1,0.2,1.5,0.6
			c0.7,0.6,0.6,1.4,0.6,2.2v0.9c0,0.8,0,1.8,0,2.1c0,0.2,0.2,0.2,0.6,0.2h0.3c0.1,0,0.2,0,0.2,0.1v0.2c0,0.1,0,0.2-0.1,0.2
			c-0.1,0-0.6,0-1.4,0c-0.7,0-1.3,0-1.4,0c-0.1,0-0.1,0-0.1-0.2v-0.3c0-0.1,0-0.1,0.1-0.1h0.3c0.3,0,0.6,0,0.6-0.3c0-0.2,0-1,0-1.5
			V162c0-0.8-0.1-1.4-0.5-1.8c-0.3-0.3-0.6-0.4-1-0.4c-0.4,0-1,0.2-1.4,0.6c-0.1,0.2-0.3,0.5-0.3,0.7v3.3c0,0.5,0,0.6,0.3,0.6h0.5
			c0.1,0,0.2,0,0.2,0.1v0.3c0,0.1,0,0.2-0.1,0.2c-0.1,0-0.7,0-1.4,0c-0.8,0-1.3,0-1.5,0c-0.1,0-0.1,0-0.1-0.2v-0.3
			c0-0.1,0.1-0.1,0.2-0.1h0.3c0.2,0,0.5-0.1,0.5-0.2c0-0.3,0-1.9,0-2.9V157.3z"/>
		<path class="st1" d="M73.1,161.1c0-0.5-0.1-0.8-0.8-0.9c-0.1,0-0.1,0-0.1-0.1V160c0,0,0-0.1,0.1-0.1c0.5-0.2,1-0.4,1.6-0.7
			c0.1-0.1,0.2-0.1,0.3-0.1c0.1,0,0.1,0.1,0.1,0.2c0,0.3,0,1.2,0,2.4v1.6c0,0.6,0,1.1,0,1.3c0,0.3,0.1,0.4,0.2,0.4h0.7
			c0.1,0,0.2,0,0.2,0.1v0.3c0,0.1,0,0.2-0.1,0.2c-0.1,0-0.8,0-1.4,0c-0.9,0-1.5,0-1.6,0c-0.1,0-0.1,0-0.1-0.1v-0.3
			c0-0.1,0-0.1,0.1-0.1h0.7c0.2,0,0.2-0.1,0.2-0.3c0-0.5,0-0.9,0-1.4V161.1z M72.4,156.5c0-0.4,0.3-0.8,0.9-0.8
			c0.6,0,0.8,0.5,0.8,0.8c0,0.4-0.3,0.9-0.9,0.9C72.9,157.4,72.4,157,72.4,156.5z"/>
		<path class="st1" d="M77.2,161.9c0,0.8,0.4,1.7,0.8,2.3c0.5,0.6,1.1,0.8,1.6,0.8c0.8,0,1.1-0.2,1.6-0.6c0,0,0.1,0,0.1,0l0.2,0.1
			c0.1,0.1,0.1,0.1,0,0.2c-0.4,0.5-1.4,1.1-2.4,1.1c-0.8,0-1.6-0.2-2.3-1c-0.6-0.7-0.7-1.4-0.7-2c0-1.8,1.2-3.5,3.2-3.5
			c1.6,0,2,0.9,2,1.2c0,0.3-0.2,0.5-0.6,0.5c-0.3,0-0.6-0.2-0.8-0.6c-0.3-0.6-0.6-0.7-1-0.7C78.1,159.5,77.2,160.3,77.2,161.9z"/>
		<path class="st1" d="M82.7,165.2c-0.1,0-0.1-0.1-0.1-0.2l-0.3-1.4c0-0.1,0-0.1,0.1-0.1l0.2,0c0.1,0,0.1,0,0.1,0.1l0.4,0.7
			c0.3,0.6,0.5,0.9,1.3,0.9c0.5,0,1.2-0.3,1.2-1c0-0.7-0.3-1.1-1.5-1.4c-0.9-0.3-1.8-0.7-1.8-1.9c0-1,1-1.8,2.1-1.8
			c0.7,0,1.1,0.2,1.4,0.3c0.2,0.1,0.3,0.2,0.3,0.3l0.2,1c0,0.1,0,0.1-0.1,0.1l-0.2,0.1c-0.1,0-0.1,0-0.1-0.1l-0.5-0.7
			c-0.2-0.3-0.5-0.6-1-0.6c-0.6,0-1.2,0.3-1.2,1c0,0.9,0.7,1,1.4,1.2c1.1,0.3,1.8,0.8,1.8,1.9c0,1.2-1,2-2.3,2
			C83.5,165.7,82.9,165.4,82.7,165.2z"/>
		<path class="st1" d="M92.9,158.7c0-1.1,0-2.1,0-2.5c0-0.5-0.2-0.8-0.6-0.8h-0.6c-0.1,0-0.1,0-0.1-0.1v-0.4c0-0.1,0-0.1,0.1-0.1
			c0.1,0,0.6,0,1.9,0c0.8,0,2.2,0,2.5,0c1.2,0,2.2,0.4,2.8,0.9c0.5,0.5,0.8,1.2,0.8,1.7c0,1.9-0.9,2.6-2.8,3v0
			c0.4,0.1,0.6,0.4,0.7,0.6c0.2,0.2,1.2,1.7,1.4,1.9c0.1,0.1,1,1.5,1.3,1.7c0.3,0.2,0.7,0.3,1.1,0.3c0.1,0,0.1,0.1,0.1,0.1v0.3
			c0,0.1,0,0.1-0.1,0.1c-0.1,0-0.5,0-1.2,0c-0.4,0-1,0-1.2,0c-0.2-0.2-0.5-0.7-0.6-0.9c-0.1-0.2-0.9-1.6-1-1.7
			c-0.1-0.1-0.8-1.2-1-1.4c-0.4-0.5-0.8-0.9-1.6-0.9c-0.1,0-0.3,0-0.5,0v0.8c0,0.9,0,2.6,0,2.8c0,0.3,0.1,0.6,0.4,0.6h0.9
			c0.1,0,0.1,0,0.1,0.1v0.3c0,0.1,0,0.1-0.2,0.1c-0.2,0-0.5,0-2,0c-1.4,0-1.7,0-1.9,0c-0.1,0-0.1,0-0.1-0.1v-0.3
			c0-0.1,0-0.1,0.1-0.1h0.6c0.3,0,0.6-0.1,0.6-0.5c0-1.5,0-2.9,0-4.3V158.7z M94.3,160.2c0.2,0,0.4,0.1,0.7,0.1
			c2.7,0,3.3-1.9,3.3-2.5c0-0.7-0.3-1.3-0.8-1.7c-0.6-0.5-1.2-0.7-2.5-0.7c-0.2,0-0.4,0-0.5,0.1c-0.1,0.1-0.2,0.2-0.2,0.5V160.2z"/>
		<path class="st1" d="M103,161.5c0,0.1,0,0.4,0,0.7c0,1.5,0.9,2.6,2.1,2.6c0.9,0,1.6-0.5,1.8-1c0-0.1,0.1-0.1,0.1-0.1l0.2,0.1
			c0,0,0.1,0.1,0,0.2c-0.3,0.6-1,1.6-2.4,1.6c-0.9,0-1.8-0.3-2.4-1.1c-0.5-0.8-0.7-1.3-0.7-2.4c0-0.6,0.2-1.6,0.9-2.4
			c0.6-0.7,1.4-0.8,2.1-0.8c1.7,0,2.2,1.6,2.2,2.2c0,0.2-0.2,0.2-0.4,0.2H103z M105.4,161.1c0.3,0,0.4-0.1,0.4-0.2
			c0-0.3-0.2-1.3-1.2-1.3c-0.7,0-1.3,0.4-1.6,1.5H105.4z"/>
		<path class="st1" d="M108.7,165.2c-0.1,0-0.1-0.1-0.1-0.2l-0.3-1.4c0-0.1,0-0.1,0.1-0.1l0.2,0c0.1,0,0.1,0,0.1,0.1l0.4,0.7
			c0.3,0.6,0.5,0.9,1.3,0.9c0.5,0,1.2-0.3,1.2-1c0-0.7-0.3-1.1-1.5-1.4c-0.9-0.3-1.8-0.7-1.8-1.9c0-1,1-1.8,2.1-1.8
			c0.7,0,1.1,0.2,1.4,0.3c0.2,0.1,0.3,0.2,0.3,0.3l0.2,1c0,0.1,0,0.1-0.1,0.1l-0.2,0.1c-0.1,0-0.1,0-0.1-0.1l-0.5-0.7
			c-0.2-0.3-0.5-0.6-1-0.6c-0.6,0-1.2,0.3-1.2,1c0,0.9,0.7,1,1.4,1.2c1.1,0.3,1.8,0.8,1.8,1.9c0,1.2-1,2-2.3,2
			C109.5,165.7,108.9,165.4,108.7,165.2z"/>
		<path class="st1" d="M114.8,161.5c0,0.1,0,0.4,0,0.7c0,1.5,0.9,2.6,2.1,2.6c0.9,0,1.6-0.5,1.8-1c0-0.1,0.1-0.1,0.1-0.1l0.2,0.1
			c0,0,0.1,0.1,0,0.2c-0.3,0.6-1,1.6-2.4,1.6c-0.9,0-1.8-0.3-2.4-1.1c-0.5-0.8-0.7-1.3-0.7-2.4c0-0.6,0.2-1.6,0.9-2.4
			c0.6-0.7,1.4-0.8,2.1-0.8c1.7,0,2.2,1.6,2.2,2.2c0,0.2-0.2,0.2-0.4,0.2H114.8z M117.1,161.1c0.3,0,0.4-0.1,0.4-0.2
			c0-0.3-0.2-1.3-1.2-1.3c-0.7,0-1.3,0.4-1.6,1.5H117.1z"/>
		<path class="st1" d="M124.9,164.8c0.2,0,0.5-0.1,0.5-0.2c0.1-0.1,0.1-0.1,0.2-0.1l0.2,0.1c0,0,0.1,0.1,0,0.3
			c-0.1,0.2-0.4,0.7-1.2,0.7c-0.5,0-0.9-0.4-1.1-1h0c-0.3,0.4-0.8,0.7-1.5,0.9c-0.3,0.1-0.6,0.1-0.9,0.1c-0.4,0-0.9-0.3-0.9-1.2
			c0-0.7,0.3-1.3,1.5-1.8c0.7-0.3,1.5-0.7,1.7-0.9v-1c0-0.3,0-0.6-0.2-0.8s-0.5-0.3-0.9-0.3c-0.3,0-0.8,0.1-1,0.3
			c-0.2,0.2-0.1,0.4-0.1,0.7c0,0.5-0.2,0.9-0.8,0.9c-0.2,0-0.4-0.1-0.4-0.5c0-0.5,0.4-1,1-1.4c0.6-0.4,1.2-0.5,1.8-0.5
			c0.7,0,1,0.2,1.2,0.4c0.3,0.3,0.3,0.7,0.3,1.1v3.2C124.5,164.6,124.6,164.8,124.9,164.8z M123.4,162.2c-0.5,0.4-2,0.7-2,2
			c0,0.6,0.3,0.8,0.8,0.8c0.4,0,1.2-0.5,1.2-0.9V162.2z"/>
		<path class="st1" d="M127.3,161.5c0-0.8-0.1-0.9-0.5-1.1l-0.3-0.1c-0.1,0-0.1,0-0.1-0.1V160c0-0.1,0-0.1,0.1-0.1l1.5-0.8
			c0.1,0,0.2-0.1,0.2-0.1c0.1,0,0.1,0.1,0.1,0.2l0.1,1.1h0.1c0.5-0.7,1.2-1.3,1.8-1.3c0.5,0,0.8,0.3,0.8,0.7c0,0.4-0.4,0.7-0.6,0.7
			c-0.2,0-0.3-0.1-0.4-0.1c-0.1-0.1-0.3-0.1-0.5-0.1c-0.2,0-0.6,0.2-0.9,0.6c-0.1,0.2-0.2,0.4-0.2,0.5v3.1c0,0.5,0.1,0.6,0.4,0.6
			h0.7c0.1,0,0.1,0,0.1,0.1v0.3c0,0.1,0,0.1-0.1,0.1c-0.1,0-0.8,0-1.6,0c-0.9,0-1.6,0-1.6,0c-0.1,0-0.1,0-0.1-0.2v-0.3
			c0-0.1,0-0.1,0.2-0.1h0.6c0.2,0,0.3-0.1,0.3-0.3c0-0.5,0-1,0-1.8V161.5z"/>
		<path class="st1" d="M132.4,161.9c0,0.8,0.4,1.7,0.8,2.3c0.5,0.6,1.1,0.8,1.6,0.8c0.8,0,1.1-0.2,1.6-0.6c0,0,0.1,0,0.1,0l0.2,0.1
			c0.1,0.1,0.1,0.1,0,0.2c-0.4,0.5-1.4,1.1-2.4,1.1c-0.8,0-1.6-0.2-2.3-1c-0.6-0.7-0.7-1.4-0.7-2c0-1.8,1.2-3.5,3.2-3.5
			c1.6,0,2,0.9,2,1.2c0,0.3-0.2,0.5-0.6,0.5c-0.3,0-0.6-0.2-0.8-0.6c-0.3-0.6-0.6-0.7-1-0.7C133.4,159.5,132.4,160.3,132.4,161.9z"
			/>
		<path class="st1" d="M138.5,157.3c0-0.9-0.2-1.1-0.7-1.3l-0.3-0.1c-0.1,0-0.1,0-0.1-0.1v-0.1c0-0.1,0-0.1,0.2-0.1l1.6-0.8
			c0.1-0.1,0.2-0.1,0.3-0.1c0.1,0,0.1,0.1,0.1,0.4c0,0.3,0,3.3,0,4v1h0.1c0.5-0.6,1.4-1,2.1-1c0.6,0,1.1,0.2,1.5,0.6
			c0.7,0.6,0.6,1.4,0.6,2.2v0.9c0,0.8,0,1.8,0,2.1c0,0.2,0.2,0.2,0.6,0.2h0.3c0.1,0,0.2,0,0.2,0.1v0.2c0,0.1,0,0.2-0.1,0.2
			c-0.1,0-0.6,0-1.4,0c-0.7,0-1.3,0-1.4,0c-0.1,0-0.1,0-0.1-0.2v-0.3c0-0.1,0-0.1,0.1-0.1h0.3c0.3,0,0.6,0,0.6-0.3c0-0.2,0-1,0-1.5
			V162c0-0.8-0.1-1.4-0.5-1.8c-0.3-0.3-0.6-0.4-1-0.4c-0.4,0-1,0.2-1.4,0.6c-0.1,0.2-0.3,0.5-0.3,0.7v3.3c0,0.5,0,0.6,0.3,0.6h0.5
			c0.1,0,0.2,0,0.2,0.1v0.3c0,0.1,0,0.2-0.1,0.2c-0.1,0-0.7,0-1.4,0c-0.8,0-1.3,0-1.5,0c-0.1,0-0.1,0-0.1-0.2v-0.3
			c0-0.1,0.1-0.1,0.2-0.1h0.3c0.2,0,0.5-0.1,0.5-0.2c0-0.3,0-1.9,0-2.9V157.3z"/>
		<path class="st1" d="M158.1,162.2c0-0.5-0.2-0.7-0.6-0.7h-0.6c-0.1,0-0.1,0-0.1-0.1V161c0-0.1,0-0.1,0.1-0.1c0.2,0,0.9,0,1.9,0
			c1.1,0,1.6,0,1.8,0c0.1,0,0.1,0,0.1,0.1v0.4c0,0.1,0,0.1-0.1,0.1H160c-0.3,0-0.5,0.1-0.5,0.6v2c0,0.2,0.1,0.4,0.1,0.5
			s-0.1,0.2-0.2,0.2c-1.2,0.6-2.4,1-4.1,1c-1.3,0-3.2-0.5-4.2-1.7c-0.9-1-1.4-2.3-1.4-4.1c0-1.4,0.6-2.8,1.7-3.8
			c1.1-0.9,2.4-1.4,4.2-1.4c1.3,0,2.4,0.5,3,0.9c0.2,0.1,0.3,0.1,0.3,0l0.2-0.3c0.1-0.1,0.1-0.1,0.2-0.1c0.1,0,0.1,0.1,0.1,0.2
			l0,2.9c0,0.1,0,0.1-0.1,0.1l-0.3,0c-0.1,0-0.1,0-0.1-0.1c-0.1-0.4-0.4-1.1-0.9-1.8c-0.5-0.6-1.4-1.2-2.7-1.2c-1,0-2,0.3-2.9,1.2
			c-0.8,0.9-1.3,2.1-1.3,3.5c0,1.8,0.5,3.3,1.4,4.2c0.8,0.7,1.7,1.1,2.6,1.1c1.2,0,1.9-0.2,2.5-0.5c0.3-0.2,0.4-0.5,0.4-1.3V162.2z"
			/>
		<path class="st1" d="M162.7,161.5c0-0.8-0.1-0.9-0.5-1.1l-0.3-0.1c-0.1,0-0.1,0-0.1-0.1V160c0-0.1,0-0.1,0.1-0.1l1.5-0.8
			c0.1,0,0.2-0.1,0.2-0.1c0.1,0,0.1,0.1,0.1,0.2l0.1,1.1h0.1c0.5-0.7,1.2-1.3,1.8-1.3c0.5,0,0.8,0.3,0.8,0.7c0,0.4-0.4,0.7-0.6,0.7
			c-0.2,0-0.3-0.1-0.4-0.1c-0.1-0.1-0.3-0.1-0.5-0.1c-0.2,0-0.6,0.2-0.9,0.6c-0.1,0.2-0.2,0.4-0.2,0.5v3.1c0,0.5,0.1,0.6,0.4,0.6
			h0.7c0.1,0,0.1,0,0.1,0.1v0.3c0,0.1,0,0.1-0.1,0.1c-0.1,0-0.8,0-1.6,0c-0.9,0-1.6,0-1.6,0c-0.1,0-0.1,0-0.1-0.2v-0.3
			c0-0.1,0-0.1,0.2-0.1h0.6c0.2,0,0.3-0.1,0.3-0.3c0-0.5,0-1,0-1.8V161.5z"/>
		<path class="st1" d="M167.5,164.6c-0.7-0.8-0.8-1.4-0.8-2.4c0-0.8,0.4-1.7,1.3-2.4c0.8-0.6,1.5-0.7,2-0.7c0.8,0,1.7,0.4,2.1,0.9
			c0.7,0.7,1,1.5,1,2.4c0,1.6-1.5,3.3-3.3,3.3C169.1,165.7,168.1,165.4,167.5,164.6z M171.9,162.2c0-1.7-1.2-2.7-2-2.7
			c-0.4,0-0.8,0.1-1.2,0.5c-0.6,0.6-0.8,1.2-0.8,2.4c0,0.8,0.1,1.4,0.6,2.1c0.3,0.5,0.8,0.8,1.5,0.8
			C171.1,165.2,171.9,163.8,171.9,162.2z"/>
		<path class="st1" d="M179.9,162.5c0,0.7,0,1.5,0,1.8c0,0.5,0.2,0.5,0.4,0.5c0.1,0,0.3,0,0.5,0c0.1,0,0.2,0,0.2,0.1l0,0.2
			c0,0.1,0,0.1-0.1,0.1l-1.6,0.5c-0.1,0-0.2,0.1-0.3,0.1c-0.1,0-0.1,0-0.1-0.2l-0.1-0.9h0c-0.4,0.6-1.3,1-2,1c-0.4,0-0.9,0-1.4-0.7
			c-0.6-0.8-0.6-1.3-0.6-2.9v-1.8c0-0.4-0.2-0.5-0.6-0.6c-0.3,0-0.3,0-0.3-0.1v-0.3c0-0.1,0-0.1,0.2-0.1h1.3c0.1,0,0.2,0,0.2,0
			c0.1,0,0.1,0,0.2,0c0.1,0,0.2,0.1,0.2,0.2c0,0.1-0.1,0.8-0.1,1.7v1.1c0,0.6-0.2,1.6,0.3,2.2c0.4,0.5,0.8,0.6,1.2,0.6
			c0.4,0,1-0.4,1.3-0.8c0.1-0.1,0.2-0.3,0.2-0.4v-3.6c0-0.4-0.3-0.5-0.6-0.5c-0.3,0-0.3,0-0.3-0.1v-0.3c0-0.1,0-0.1,0.2-0.1h1.4
			c0.1,0,0.2,0,0.3,0c0.1,0,0.1,0,0.2,0c0.1,0,0.1,0.1,0.1,0.1c0,0.1-0.1,0.5-0.1,2V162.5z"/>
		<path class="st1" d="M182.6,161.3c0-0.4-0.1-0.6-0.5-0.8l-0.3-0.2c-0.1,0-0.1-0.1-0.1-0.1V160c0,0,0-0.1,0.1-0.1l1.4-0.7
			c0.1-0.1,0.2-0.1,0.3-0.1c0.1,0,0.1,0.1,0.1,0.3l0.1,0.7h0c0.4-0.5,1.2-1,2.2-1c0.8,0,1.3,0.3,1.7,0.7c0.6,0.6,0.8,1.2,0.8,2.3
			c0,2-1.4,3.5-3.2,3.5c-0.4,0-1-0.1-1.5-0.3v3.2c0,0.4,0.1,0.5,0.3,0.5h0.7c0.1,0,0.1,0.1,0.1,0.1v0.3c0,0.1,0,0.1-0.1,0.1
			c-0.1,0-0.6,0-1.5,0c-0.9,0-1.4,0-1.5,0c-0.1,0-0.1,0-0.1-0.1v-0.3c0-0.1,0-0.1,0.2-0.1h0.6c0.3,0,0.3-0.2,0.3-0.4
			c0-0.3,0-1.1,0-2.6V161.3z M183.6,164c0,0.3,0,0.6,0.3,0.8c0.4,0.3,0.9,0.4,1.5,0.4c0.9,0,1.7-0.6,1.7-2.5c0-2.1-0.9-2.9-1.9-2.9
			c-0.6,0-1.2,0.4-1.6,1V164z"/>
	</g>
</g>
<g id="schools">
	<g>
		<g>
			<g id="XMLID_26_">
				<rect id="XMLID_53_" x="-147.9" y="148.9" class="st2" width="2.6" height="12.5"/>
				<rect id="XMLID_52_" x="-162.1" y="148.9" class="st2" width="2.5" height="12.5"/>
				<rect id="XMLID_51_" x="-158.7" y="148.9" class="st2" width="2.7" height="12.5"/>
				<rect id="XMLID_50_" x="-155.1" y="148.9" class="st2" width="2.7" height="12.5"/>
				<rect id="XMLID_49_" x="-151.5" y="148.9" class="st2" width="2.7" height="12.5"/>
				<polygon id="XMLID_48_" class="st2" points="-146.4,148 -161,148 -153.5,143.4 				"/>
				<polygon id="XMLID_47_" class="st2" points="-162.7,148 -169,148 -169,143.3 -155.1,143.3 				"/>
				<polygon id="XMLID_46_" class="st2" points="-152,143.3 -138.5,143.3 -138.5,148 -144.8,148 				"/>
				<path id="XMLID_45_" class="st2" d="M-140.5,142.5H-167c2.6-4.7,7.6-7.9,13.3-7.9S-143.1,137.8-140.5,142.5z"/>
				<path id="XMLID_39_" class="st2" d="M-166.9,157.8l-0.2,0.7l0.6-0.4l0.6,0.4l-0.2-0.7l0.6-0.4h-0.7l-0.2-0.7l-0.2,0.7h-0.7
					L-166.9,157.8z M-169,153.8l0.6,0.4l-0.2,0.8l0.6-0.5l0.6,0.5l-0.2-0.7l0.6-0.4h-0.8l-0.2-0.8l-0.2,0.7
					C-168.2,153.8-169,153.8-169,153.8z M-163,161.4h-0.8l-0.2-0.7l0.6-0.4h-0.7l-0.2-0.7l-0.2,0.7h-0.7l0.6,0.4l-0.4,0.7h-4v-7.5
					v-2.7l0.6-0.4l0.6,0.4l-0.2-0.8l0.6-0.4h-0.8l-0.2-0.7l-0.1,0.3l-0.1,0.4h-0.4v-1.1h6V161.4z M-163.8,161.4h-1.2l0.6-0.4
					L-163.8,161.4z M-169,151v-0.7l0.2,0.1l-0.1,0.4L-169,151z"/>
				<rect id="XMLID_38_" x="-169" y="162.2" class="st2" width="6" height="3.3"/>
				<rect id="XMLID_37_" x="-144.4" y="162.2" class="st2" width="5.9" height="3.3"/>
				<path id="XMLID_32_" class="st2" d="M-149.6,164.6l0.6-0.4h-0.7l-0.3-0.8l-0.2,0.7h-0.8l0.6,0.4l-0.2,0.7l0.6-0.4l0.6,0.4
					L-149.6,164.6z M-154.1,165l-0.2,0.5h-7.8v-3.3h1l-0.2,0.5h-0.7l0.6,0.4l-0.2,0.7l0.6-0.4l0.6,0.4l-0.2-0.7l0.6-0.4h-0.7
					l-0.3-0.5h14.6l-0.2,0.5h-0.7l0.6,0.4l-0.3,0.8l0.6-0.4l0.6,0.4l-0.2-0.7l0.6-0.4h-0.7l-0.2-0.5h1v3.3h-7.9l-0.2-0.6l0.6-0.4
					h-0.7l-0.2-0.7l-0.3,0.7h-0.7L-154.1,165z M-157.9,164.6l-0.2,0.7l0.6-0.4l0.6,0.4l-0.2-0.7l0.6-0.4h-0.7l-0.2-0.7l-0.2,0.7
					h-0.7L-157.9,164.6z M-153.4,165.6h-0.7l0.3-0.2L-153.4,165.6z"/>
				<path id="XMLID_27_" class="st2" d="M-140.5,157.8l0.6-0.4h-0.7l-0.2-0.7l-0.2,0.7h-0.7l0.6,0.4l-0.2,0.7l0.6-0.4l0.6,0.4
					L-140.5,157.8z M-142.5,161.4l-0.2-0.7l0.6-0.4h-0.7l-0.2-0.7l-0.2,0.7h-0.7l0.6,0.4l-0.2,0.7l0.6-0.4L-142.5,161.4
					L-142.5,161.4z M-138.5,161.4h-4h-1.2h-0.8v-12.5h5.9v1.1h-0.3l-0.2-0.7l-0.2,0.7h-0.7l0.6,0.4l-0.2,0.7l0.6-0.4l0.5,0.4v2.7
					h-0.7l-0.2-0.7l-0.2,0.7h-0.7l0.6,0.4l-0.4,0.8l0.6-0.4l0.6,0.4l-0.2-0.7l0.6-0.4C-138.5,153.9-138.5,161.4-138.5,161.4z
					 M-138.5,150.3v0.6l-0.2-0.5L-138.5,150.3z"/>
			</g>
			<path id="XMLID_25_" class="st1" d="M-126.5,151.5c2.1,0,3.6-0.6,4.6-1.5c1.4-1.2,1.9-2.7,2.1-4.8c0.1-1,0.1-5.3,0.1-5.6
				c0-0.3,0-3.8,0-4.1c0.1-0.3,0.1-1,1.1-1h1c0.1,0,0.1-0.1,0.1-0.2v-0.5c0-0.1,0-0.2-0.2-0.2c-0.2,0-1,0.1-2.7,0.1s-2.8-0.1-3-0.1
				c-0.1,0-0.2,0-0.2,0.2v0.6c0,0.1,0,0.2,0.2,0.2h1.1c0.6,0,1,0.4,1.1,1.1c0.1,0.6,0.1,2,0.1,3.9v5.3c0,1.8-0.3,3.3-1.3,4.3
				c-0.9,0.9-2.3,1.4-3.7,1.4s-3-0.4-3.9-1.8c-0.6-0.8-0.8-2-0.8-3.1c0-0.8-0.1-3.9-0.1-5.2v-1.6c0-1.3,0-3,0-3.2c0-0.5,0.5-1,1.2-1
				h1.2c0.2,0,0.2,0,0.2-0.2v-0.7c0-0.1,0-0.1-0.2-0.1c-0.3,0-1.5,0.1-3.4,0.1c-1.9,0-3.1-0.1-3.4-0.1c-0.2,0-0.2,0-0.2,0.2v0.5
				c0,0.2,0,0.2,0.2,0.2h1.2c0.8,0,0.9,0.4,0.9,1.3v5.9c0,3.2,0.1,4.9,0.4,6c0.4,1.6,1.3,2.6,2.9,3.3
				C-129,151.4-127.8,151.5-126.5,151.5z"/>
			<path id="XMLID_24_" class="st1" d="M-106.3,143c0-1.1-0.1-2.8,0.1-4c0.1-0.4,0.2-0.6,0.9-0.6h0.3c0.1,0,0.2-0.1,0.2-0.2v-0.6
				c0-0.2-0.1-0.2-0.2-0.2c-0.2,0-1.1,0.1-1.7,0.1c-0.9,0-2-0.1-2.2-0.1c-0.1,0-0.2,0.1-0.2,0.1v0.6c0,0.1,0.1,0.2,0.2,0.2h0.5
				c0.5,0,0.9,0.2,1,0.5s0.2,1.9,0.2,2.5c0.1,0.9,0.1,1.7,0.1,3.2v1.8h-0.1c-0.3-0.3-2.8-3.5-3.3-4c-0.6-0.7-3.6-4.5-3.7-4.7
				c-0.1-0.2-0.3-0.2-0.6-0.2c-0.3,0-0.9,0.1-1.3,0.1c-0.3,0-0.7,0-1.1-0.1c-0.3,0-0.6,0-0.7,0c-0.1,0-0.2,0.1-0.2,0.2v0.6
				c0,0.1,0.1,0.2,0.2,0.2h0.2c0.7,0,1.4,0.5,1.4,1.4v2.8c0,3-0.1,4.9-0.1,5.2c-0.1,0.6-0.5,0.8-0.8,0.8h-0.6c-0.1,0-0.1,0-0.1,0.1
				v0.7c0,0.1,0,0.2,0.1,0.2c0.2,0,1.4-0.1,1.8-0.1c0.8,0,1.8,0.1,2,0.1c0.1,0,0.1-0.1,0.1-0.2v-0.6c0-0.1,0-0.2-0.1-0.2h-0.6
				c-0.3,0-0.6-0.3-0.6-0.9c-0.1-0.2-0.2-2.9-0.2-4.5v-3.7h0.1c0.4,0.5,2.6,3.4,3.2,4.1c0.3,0.3,1.4,1.7,2.7,3.2
				c1.1,1.3,2,2.4,2.2,2.6c0.1,0.1,0.4,0.3,0.6,0.3c0.3,0,0.4-0.3,0.4-0.5V143H-106.3z"/>
			<path id="XMLID_23_" class="st1" d="M-99.9,142.8c0-0.2,0-3.4,0-3.6c0-0.6,0.3-0.7,1-0.7h0.5c0.1,0,0.2-0.1,0.2-0.2v-0.6
				c0-0.1-0.1-0.1-0.2-0.1c-0.2,0-1.6,0.1-2.4,0.1c-1.3,0-2.9-0.1-3.1-0.1c-0.1,0-0.2,0.1-0.2,0.2v0.6c0,0.1,0,0.2,0.2,0.2h0.5
				c1.1,0,1.4,0.3,1.4,0.6c0,0.4,0.1,3.1,0.1,3.5v1.2c0,0.9,0,4.3-0.1,4.5c-0.1,0.5-0.5,0.5-1.2,0.5h-0.6c-0.1,0-0.2,0.1-0.2,0.2
				v0.6c0,0.1,0.1,0.2,0.2,0.2c0.2,0,1.7-0.1,2.6-0.1c1.2,0,2.6,0.1,2.8,0.1c0.1,0,0.2-0.1,0.2-0.2v-0.6c0-0.1,0-0.1-0.2-0.1h-0.4
				c-0.8,0-1.1-0.4-1.2-1c0-0.4,0-3.5,0-3.6L-99.9,142.8L-99.9,142.8z"/>
			<path id="XMLID_20_" class="st1" d="M-72.8,143.5c0,1.6,0,3.2,0,4.5c0,0.6-0.3,0.7-1,0.7h-0.3c-0.1,0-0.2,0.1-0.2,0.1v0.6
				c0,0.1,0.1,0.2,0.2,0.2c0.2,0,1.6-0.1,2.2-0.1c0.9,0,2.3,0.1,2.5,0.1s0.2-0.1,0.2-0.2v-0.6c0-0.1-0.1-0.1-0.2-0.1H-70
				c-0.5,0-0.7-0.3-0.7-0.7v-2.9v-0.6c0.2-0.1,0.4-0.1,0.7-0.1c1.1,0,1.5,0.6,2.5,2.2c0.2,0.4,1.4,2.6,1.9,2.9
				c0.5,0,1.1-0.1,1.7-0.1c0.3,0,0.6,0,0.8,0c0.3,0,0.5,0.1,0.5,0.1c0.1,0,0.2-0.1,0.2-0.2V149c0-0.2,0-0.2-0.1-0.2
				c-0.5,0-0.8,0-1.2-0.3c-0.5-0.4-1.1-1.2-1.5-1.7c-1.1-1.6-1.6-2.4-2.2-2.5v-0.1c2.1-0.7,3.2-1.8,3.2-3.7c0-0.6-0.3-1.4-0.9-2
				c-0.7-0.6-1.9-1-3.5-1c-0.3,0-2.7,0.1-3,0.1c-0.5,0-2.1-0.1-2.3-0.1c-0.1,0-0.2,0.1-0.2,0.1v0.6c0,0.1,0,0.2,0.1,0.2h0.3
				c0.7,0,1,0.3,1,0.8v2.6v1.7H-72.8z M-70.8,138.9c0-0.5,0.4-0.6,0.8-0.6c1.1,0,1.8,0.2,2.5,0.7c0.5,0.3,0.9,1,0.9,1.8
				c0,0.7-0.5,2.8-3.4,2.8c-0.3,0-0.6,0-0.8-0.1V138.9z"/>
			<path id="XMLID_19_" class="st1" d="M-57.9,149.9c2.4,0,3.7-1.7,3.7-3.7c0-1.3-0.3-2-0.9-2.6c-0.7-0.7-1.7-1-2.9-1.4
				c-0.5-0.2-1.5-0.6-1.9-1.1c-0.3-0.3-0.4-0.9-0.4-1.3c0-0.5,0.4-1.6,1.9-1.6c0.8,0,1.4,0.3,1.8,0.7c0.6,0.6,0.8,1.6,0.9,1.9
				c0,0.1,0.1,0.1,0.2,0.1l0.5-0.1c0.1,0,0.1-0.1,0.1-0.2c0-0.4-0.3-2.1-0.3-3c0-0.1,0-0.2-0.2-0.2s-0.3,0-0.3,0.1l-0.1,0.2
				c-0.1,0.1-0.2,0.1-0.5-0.1c-0.3-0.2-0.9-0.3-1.9-0.3s-1.8,0.2-2.5,0.8c-0.6,0.5-1.2,1.3-1.2,2.2c0,1.3,0.3,2.2,0.9,2.8
				c0.8,0.7,2.1,1.2,2.6,1.4c1.4,0.5,2.5,1.2,2.5,2.7c0,1.2-1.3,1.8-2.1,1.8c-1,0-1.9-0.5-2.3-1.3c-0.5-0.9-0.5-1.4-0.5-1.8
				c0-0.1-0.1-0.2-0.2-0.2l-0.5-0.1c-0.1,0-0.2,0.1-0.2,0.2c0,0.4-0.2,2.6-0.3,3.3c0,0.1,0.1,0.2,0.2,0.3c0.2,0.1,0.3,0,0.4-0.1
				l0.1-0.2c0.1-0.2,0.2-0.2,0.4-0.1C-60.2,149.5-59.2,149.9-57.9,149.9z"/>
			<path id="XMLID_18_" class="st1" d="M-49.6,142.8c0-0.2,0-3.4,0-3.6c0-0.6,0.3-0.7,1-0.7h0.5c0.1,0,0.2-0.1,0.2-0.2v-0.6
				c0-0.1-0.1-0.1-0.2-0.1c-0.2,0-1.6,0.1-2.4,0.1c-1.3,0-2.9-0.1-3.1-0.1c-0.1,0-0.2,0.1-0.2,0.2v0.6c0,0.1,0,0.2,0.2,0.2h0.5
				c1.1,0,1.4,0.3,1.4,0.6c0,0.4,0.1,3.1,0.1,3.5v1.2c0,0.9,0,4.3-0.1,4.5c-0.1,0.5-0.5,0.5-1.2,0.5h-0.6c-0.1,0-0.2,0.1-0.2,0.2
				v0.6c0,0.1,0.1,0.2,0.2,0.2c0.2,0,1.7-0.1,2.6-0.1c1.2,0,2.6,0.1,2.8,0.1c0.1,0,0.2-0.1,0.2-0.2v-0.6c0-0.1,0-0.1-0.2-0.1h-0.4
				c-0.8,0-1.1-0.4-1.2-1c0-0.4,0-3.5,0-3.6L-49.6,142.8L-49.6,142.8z"/>
			<path id="XMLID_15_" class="st1" d="M-121.4,158.2c2.5,0,3.9-3.4,3.9-5.2c0-1.2-0.7-2-1.8-2c-2.3,0-3.9,2.9-3.9,5
				C-123.1,157.3-122.3,158.2-121.4,158.2z M-121.6,157.4c-0.4,0-0.8-0.3-0.8-0.9c0-0.8,0.4-1.8,1-2.7c0.8-1.4,1.7-2,2.5-2
				c0.6,0,0.9,0.4,0.8,0.9C-118.1,153.8-119.9,157.4-121.6,157.4z"/>
			<path id="XMLID_14_" class="st1" d="M-93.5,158.6c0-0.2,0-3.4,0-3.6c0-0.6,0.3-0.7,1-0.7h0.5c0.1,0,0.2-0.1,0.2-0.2v-0.6
				c0-0.1-0.1-0.1-0.2-0.1c-0.2,0-1.6,0.1-2.4,0.1c-1.3,0-2.9-0.1-3.1-0.1c-0.1,0-0.2,0.1-0.2,0.2v0.6c0,0.1,0,0.2,0.2,0.2h0.5
				c1.1,0,1.4,0.3,1.4,0.6c0,0.4,0.1,3.1,0.1,3.5v1.2c0,0.9,0,4.3-0.1,4.5c-0.1,0.5-0.5,0.5-1.2,0.5h-0.6c-0.1,0-0.2,0.1-0.2,0.2
				v0.6c0,0.1,0.1,0.2,0.2,0.2c0.2,0,1.7-0.1,2.6-0.1c1.2,0,2.6,0.1,2.8,0.1c0.1,0,0.2-0.1,0.2-0.2v-0.6c0-0.1,0-0.1-0.2-0.1h-0.4
				c-0.8,0-1.1-0.4-1.2-1c0-0.4,0-3.5,0-3.6L-93.5,158.6L-93.5,158.6z"/>
			<path id="XMLID_11_" class="st1" d="M-89.6,159.4c0,1.6,0,3.2,0,4.5c0,0.6-0.3,0.7-1,0.7h-0.3c-0.1,0-0.2,0.1-0.2,0.1v0.6
				c0,0.1,0.1,0.2,0.2,0.2c0.2,0,1.6-0.1,2.2-0.1c0.9,0,2.3,0.1,2.5,0.1s0.2-0.1,0.2-0.2v-0.6c0-0.1-0.1-0.1-0.2-0.1h-0.7
				c-0.5,0-0.7-0.3-0.7-0.7V161v-0.6c0.2-0.1,0.4-0.1,0.7-0.1c1.1,0,1.5,0.6,2.5,2.2c0.2,0.4,1.4,2.6,1.9,2.9c0.5,0,1.1-0.1,1.7-0.1
				c0.3,0,0.6,0,0.8,0c0.3,0,0.5,0.1,0.5,0.1c0.1,0,0.2-0.1,0.2-0.2v-0.5c0-0.2,0-0.2-0.1-0.2c-0.5,0-0.8,0-1.2-0.3
				c-0.5-0.4-1.1-1.2-1.5-1.7c-1.1-1.6-1.6-2.4-2.2-2.5l0,0c2.1-0.7,3.2-1.8,3.2-3.7c0-0.6-0.3-1.4-0.9-2c-0.7-0.6-1.9-1-3.5-1
				c-0.3,0-2.7,0.1-3,0.1c-0.5,0-2.1-0.1-2.3-0.1c-0.1,0-0.2,0.1-0.2,0.1v0.6c0,0.1,0,0.2,0.1,0.2h0.3c0.7,0,1,0.3,1,0.8v2.6V159.4z
				 M-87.4,154.8c0-0.5,0.4-0.6,0.8-0.6c1.1,0,1.8,0.2,2.5,0.7c0.5,0.3,0.9,1,0.9,1.8c0,0.7-0.5,2.8-3.4,2.8c-0.3,0-0.6,0-0.8-0.1
				V154.8z"/>
			<path id="XMLID_10_" class="st1" d="M-69.2,161.8c0-0.5,0.5-0.6,0.8-0.6h0.5c0.1,0,0.1-0.1,0.1-0.2v-0.6c0-0.1-0.1-0.1-0.2-0.1
				s-1.3,0.1-2.3,0.1c-1.4,0-2.8-0.1-2.9-0.1s-0.1,0.1-0.1,0.1v0.6c0,0.1,0,0.1,0.1,0.1h0.6c0.7,0,1.3,0.2,1.3,0.8v1
				c0,0.5-0.1,0.9-0.4,1.2c-0.4,0.3-1.3,0.6-2.2,0.6c-0.7,0-1.8-0.4-2.6-1.2c-1-1.1-1.6-2.6-1.6-4.7c0-1.2,0.6-2.6,1.4-3.5
				c1-1.1,2-1.4,2.9-1.4c1.2,0,2,0.5,2.7,1.3c0.6,0.6,1.1,1.5,1.3,1.9c0.1,0.2,0.1,0.2,0.2,0.2l0.5-0.2c0.1,0,0.1-0.1,0.1-0.2
				c-0.1-0.5-0.4-3-0.4-3.1c0-0.2-0.1-0.3-0.3-0.3c-0.2,0-0.3,0.1-0.3,0.2l-0.1,0.2c-0.1,0.1-0.2,0.1-0.4-0.1
				c-0.5-0.4-1.8-0.9-3.1-0.9c-1.9,0-3.5,0.6-4.8,1.6c-1.3,1.1-2,2.8-2,4.4c0,2.1,0.5,3.5,1.6,4.7c1.3,1.4,3.4,2,4.8,2
				c1.7,0,3.2-0.4,4.6-1.1c0.2-0.1,0.3-0.2,0.3-0.3s-0.1-0.3-0.1-0.5V161.8z"/>
			<path id="XMLID_9_" class="st1" d="M-64.3,158.6c0-0.2,0-3.4,0-3.6c0-0.6,0.3-0.7,1-0.7h0.5c0.1,0,0.2-0.1,0.2-0.2v-0.6
				c0-0.1-0.1-0.1-0.2-0.1c-0.2,0-1.6,0.1-2.4,0.1c-1.3,0-2.9-0.1-3.1-0.1c-0.1,0-0.2,0.1-0.2,0.2v0.6c0,0.1,0,0.2,0.2,0.2h0.5
				c1.1,0,1.4,0.3,1.4,0.6c0,0.4,0.1,3.1,0.1,3.5v1.2c0,0.9,0,4.3-0.1,4.5c-0.1,0.5-0.5,0.5-1.2,0.5h-0.6c-0.1,0-0.2,0.1-0.2,0.2
				v0.6c0,0.1,0.1,0.2,0.2,0.2c0.2,0,1.7-0.1,2.6-0.1c1.2,0,2.6,0.1,2.8,0.1c0.1,0,0.2-0.1,0.2-0.2v-0.6c0-0.1,0-0.1-0.2-0.1h-0.4
				c-0.8,0-1.1-0.4-1.2-1c0-0.4,0-3.5,0-3.6L-64.3,158.6L-64.3,158.6z"/>
			<path id="XMLID_8_" class="st1" d="M-49.8,158.9c0-1.1-0.1-2.8,0.1-4c0.1-0.4,0.2-0.6,0.9-0.6h0.3c0.1,0,0.2-0.1,0.2-0.2v-0.6
				c0-0.2-0.1-0.2-0.2-0.2c-0.2,0-1.1,0.1-1.7,0.1c-0.9,0-2-0.1-2.2-0.1c-0.1,0-0.2,0.1-0.2,0.1v0.6c0,0.1,0.1,0.2,0.2,0.2h0.5
				c0.5,0,0.9,0.2,1,0.5s0.2,1.9,0.2,2.5c0.1,0.9,0.1,1.7,0.1,3.2v1.8h-0.1c-0.3-0.3-2.8-3.5-3.3-4c-0.6-0.7-3.6-4.5-3.7-4.7
				c-0.1-0.2-0.3-0.2-0.6-0.2c-0.3,0-0.9,0.1-1.3,0.1c-0.3,0-0.7,0-1.1-0.1c-0.3,0-0.6,0-0.7,0s-0.2,0.1-0.2,0.2v0.6
				c0,0.1,0.1,0.2,0.2,0.2h0.2c0.7,0,1.4,0.5,1.4,1.4v2.8c0,3-0.1,4.9-0.1,5.2c-0.1,0.6-0.5,0.8-0.8,0.8h-0.6c-0.1,0-0.1,0-0.1,0.1
				v0.7c0,0.1,0,0.2,0.1,0.2c0.2,0,1.4-0.1,1.8-0.1c0.8,0,1.8,0.1,2,0.1c0.1,0,0.1-0.1,0.1-0.2v-0.6c0-0.1,0-0.2-0.1-0.2h-0.6
				c-0.3,0-0.6-0.3-0.6-0.9c-0.1-0.2-0.2-2.9-0.2-4.5v-3.7h0.1c0.4,0.5,2.6,3.4,3.2,4.1c0.3,0.3,1.4,1.7,2.7,3.2
				c1.1,1.3,2,2.4,2.2,2.6c0.1,0.1,0.4,0.3,0.6,0.3c0.3,0,0.4-0.3,0.4-0.5v-6.2H-49.8z"/>
			<path id="XMLID_7_" class="st1" d="M-115.5,151.9h-1.5c-0.1,0-0.1-0.1-0.1-0.2l0.1-0.3c0-0.1,0.2-0.4,0.3-0.4h1.5
				c0.5-1.5,1-2.6,1.9-3.6c0.5-0.5,1.4-1.2,2.5-1.2c1,0,1.5,0.6,1.5,1c0,0.5-0.3,0.8-0.7,0.8c-0.5,0-0.7-0.3-0.7-0.7
				c0-0.2-0.2-0.5-0.7-0.5c-1.6,0-1.9,2.2-2.5,4.1c0,0,2.4,0.1,4.3,0.1c2.1,0,3.2-0.1,3.4-0.1s0.2,0.1,0.2,0.2v0.6
				c0,0.1,0,0.2-0.2,0.2h-1.2c-0.7,0-1,0.2-1,0.6c0,0.2,0,0.5,0.1,0.8c0.1,0.9,1.1,3.8,1.5,5.2c0.3,0.9,1.7,5.2,2.3,6.7
				c0.6-1.2,2.5-6.2,2.7-6.8c0.2-0.7,1.2-3.5,1.6-4.6c0.2-0.6,0.3-1.1,0.3-1.4c0-0.3-0.2-0.6-0.8-0.6h-0.6c-0.1,0-0.1-0.1-0.1-0.2
				V151c0-0.1,0-0.2,0.1-0.2c0.2,0,1.4,0.1,2.9,0.1c1.8,0,2.4-0.1,2.6-0.1c0.1,0,0.2,0,0.2,0.2v0.6c0,0.1,0,0.2-0.2,0.2h-0.7
				c-0.8,0-1.3,0.4-1.7,1c-0.6,0.8-2.6,5.8-3,6.9c-0.3,0.8-3.5,8.6-3.6,8.9c-0.2,0.2-0.3,0.4-0.5,0.4c-0.2,0-0.3-0.2-0.4-0.6
				c-0.8-2.3-2.8-7.9-3.1-8.8l-0.2-0.8c-0.6-1.7-1.7-5.3-2.1-6.1c-0.2-0.6-0.5-0.8-1-0.8h-2.3c-0.4,1.4-1.2,4.3-2.1,6.4
				c-1,2.6-2.2,4.5-4,4.5c-0.7,0-1.2-0.5-1.2-1c0-0.4,0.3-0.7,0.7-0.7c0.5,0,0.7,0.5,0.8,0.8c0,0.2,0.2,0.3,0.3,0.3
				c0.8,0,1.7-1.4,2.6-4.6L-115.5,151.9z"/>
			<path id="XMLID_6_" class="st1" d="M-46.7,137.5c0,0,0,0,0.1,0c0.4,0,1.9,0.2,4.9,0.2h1.1c0.9,0,1.8,0,2.8-0.1c0.5,0,3.7,0,4.3,0
				s2.4-0.1,2.6-0.1c0.1,0,0.2,0.1,0.2,0.2v0.6c0,0.1,0,0.2-0.2,0.2h-0.4c-0.5,0-0.5,0.3-0.4,0.5c0.2,0.2,2.4,3.8,2.8,4.4
				c0.4-0.7,2.6-3.9,2.7-4.1c0.2-0.4,0.2-0.8-0.3-0.8h-0.4c-0.1,0-0.2-0.1-0.2-0.2v-0.6c0-0.1,0.1-0.2,0.2-0.2
				c0.2,0,1.5,0.1,2.3,0.1c0.5,0,1.4-0.1,1.6-0.1c0.1,0,0.2,0.1,0.2,0.2v0.6c0,0.1-0.1,0.2-0.2,0.2h-0.3c-0.4,0-0.7,0.1-1,0.2
				c-0.4,0.2-3.5,4.6-4.1,5.5v2.2c0,0.7,0,1.4,0.1,1.7c0.1,0.6,0.5,0.6,1,0.6h0.3c0.1,0,0.2,0.1,0.2,0.1v0.6c0,0.1-0.1,0.2-0.2,0.2
				c-0.2,0-1.7-0.1-2.5-0.1c-0.6,0-2.1,0.1-2.3,0.1c-0.1,0-0.2-0.1-0.2-0.2v-0.6c0-0.1,0.1-0.2,0.2-0.2h0.4c0.9,0,1-0.2,1-0.5
				c0-0.2,0-1.2,0-2.8v-1c-0.2-0.5-3.5-5.3-3.9-5.7c-0.2-0.2-0.6-0.3-0.8-0.3c0.2,0.7,0.4,1.7,0.5,2.1c0,0.1,0,0.2-0.1,0.2l-0.5,0.1
				c-0.2,0.1-0.2,0-0.3-0.1c-0.3-0.7-0.8-1.6-1.3-2.1c-0.7-0.2-2.6-0.3-3.1-0.3v4.8c0,2.8,0,4.8,0,5c0.1,0.4,0.2,0.7,0.6,0.7h1
				c0.1,0,0.2,0.1,0.2,0.2v0.6c0,0.1-0.1,0.2-0.2,0.2c-0.2,0-1.8-0.1-2.7-0.1c-0.7,0-2.5,0.1-2.7,0.1s-0.2-0.1-0.2-0.2V149
				c0-0.1,0.1-0.2,0.2-0.2h1.1c0.4,0,0.6-0.2,0.6-0.4c0.1-1,0.1-2.4,0.1-4v-5.8c-0.5,0-2,0-3,0.2c-0.7,0.5-1.2,1.4-1.6,2.1
				c-0.1,0.1-0.1,0.2-0.2,0.1l-0.5-0.2c-0.1-0.1-0.1-0.2-0.1-0.3C-47.4,140-46.9,138.4-46.7,137.5L-46.7,137.5z"/>
			<path id="XMLID_3_" class="st1" d="M-37.9,160h3.6c-0.1-0.4-1.4-4.4-1.4-4.6c-0.1-0.2-0.1-0.3-0.2-0.3c-0.1,0-0.1,0.1-0.2,0.3
				C-36.1,155.6-37.8,159.7-37.9,160z M-43.5,158.6v1.4c0,0.2,0,3.2,0,3.6c0.1,0.6,0.4,1,1.2,1h0.3c0.5,0,0.9-0.3,1.1-0.6
				c0.2-0.2,1.6-3.4,2.2-4.8c0.2-0.4,1.8-4,1.9-4.5c0.1-0.2,0.2-0.5,0-0.5c-0.1-0.1-0.1-0.2-0.1-0.3c0-0.1,0-0.1,0.3-0.2
				c0.5-0.1,1.3-0.6,1.5-0.8c0.1-0.1,0.2-0.2,0.3-0.2c0.2,0,0.2,0.1,0.3,0.3c0.4,1.1,1.7,4.9,2.1,6c0.4,1.3,1.6,4.5,1.7,4.8
				c0.3,0.5,0.8,0.7,1.3,0.7h0.5c0.1,0,0.1,0.1,0.1,0.2v0.6c0,0.1,0,0.2-0.2,0.2c-0.3,0-1.7-0.1-2.4-0.1c-0.5,0-2.1,0.1-2.4,0.1
				c-0.2,0-0.2-0.1-0.2-0.2v-0.6c0-0.1,0-0.2,0.1-0.2h0.4c0.3,0,0.4-0.2,0.4-0.5c-0.1-0.5-0.8-2.7-1-3.3h-4.3
				c-0.1,0.3-1,2.5-1.1,2.9c-0.2,0.5-0.1,0.9,0.5,0.9h0.7c0.2,0,0.2,0.1,0.2,0.2v0.6c0,0.1,0,0.2-0.2,0.2s-1.6-0.1-2.1-0.1
				c-0.3,0-3.6,0-4.4,0c-0.9,0-2.5,0.1-2.6,0.1s-0.2-0.1-0.2-0.2v-0.6c0-0.1,0.1-0.2,0.2-0.2h0.6c0.7,0,1.1,0,1.2-0.5
				c0-0.2,0.1-3.6,0.1-4.5v-1.2c0-0.4-0.1-3.1-0.1-3.5c0-0.3-0.2-0.6-1.4-0.6h-0.5c-0.1,0-0.2-0.1-0.2-0.2v-0.6
				c0-0.1,0.1-0.2,0.2-0.2c0.2,0,1.8,0.1,3.1,0.1c0.8,0,2.1-0.1,2.4-0.1c0.1,0,0.2,0.1,0.2,0.1v0.6c0,0.1,0,0.2-0.2,0.2h-0.5
				c-0.7,0-1,0.1-1,0.7C-43.4,155.3-43.5,158.4-43.5,158.6z"/>
			<path id="XMLID_1_" class="st1" d="M-92.3,137.7v0.6c0,0.1-0.1,0.2-0.2,0.2h-0.6c-0.3,0-0.7,0.1-0.7,0.4c0,0.6,0.5,1.7,1.2,3.9
				c0.2,0.7,1.2,3.8,1.4,4.2h0.1c0.2-0.6,1.5-3.9,1.6-4.3c1-3,1.4-3.7,1.4-4c0-0.1-0.1-0.3-0.6-0.3H-89c-0.1,0-0.2-0.1-0.2-0.2v-0.6
				c0-0.1,0.1-0.2,0.2-0.2c0.2,0,1.6,0.1,2.2,0.1c0.4,0,3.7,0,4.1,0h6c0.3,0,0.6-0.1,0.7-0.1s0.1,0.1,0.2,0.4
				c0.1,0.2,0.8,2.5,0.9,2.7c0,0.1,0,0.2,0,0.2l-0.4,0.2c-0.1,0-0.2,0-0.2-0.1c-0.1-0.1-1.3-1.6-1.8-2c-0.3-0.3-0.7-0.4-1-0.4
				l-2.8-0.1v4.7c0.2,0,1.7-0.1,2-0.1c0.7-0.2,1-0.6,1-1.4c0-0.1,0-0.1,0.1-0.1h0.6c0.1,0,0.2,0.1,0.2,0.2c-0.1,0.2-0.1,1.7-0.1,1.9
				c0,0.6,0.1,1.4,0.1,1.8c0,0.1-0.1,0.1-0.1,0.1l-0.6,0.1c-0.1,0-0.1,0-0.2-0.1c-0.1-0.7-0.3-1.1-1-1.3c-0.8-0.2-1.7-0.2-2-0.2v0.9
				c0,0.9,0.1,2.5,0.1,2.8c0,1.3,0.8,1.3,1.9,1.3c1.2,0,1.9,0,2.8-0.7c0.2-0.2,1.2-1.4,1.4-1.8c0.1-0.2,0.3-0.2,0.3-0.2l0.4,0.2
				c0.1,0,0.1,0.1,0.1,0.2l-1,2.8c-0.1,0.1-0.2,0.3-0.3,0.3c-0.2,0-1.6-0.1-7.2-0.1c-0.5,0-2,0.1-2.3,0.1c-0.1,0-0.2-0.1-0.2-0.2
				v-0.6c0-0.1,0.1-0.2,0.2-0.2h0.2c1.3,0,1.3-0.1,1.3-0.5v-4v-1.7c0-1.4,0-3.2-0.1-3.4c-0.1-0.6-0.2-0.7-1.3-0.7H-85h-0.1h-0.4
				c-0.5,0-0.9,0.2-1.1,0.4c-0.5,0.5-2,4-2.2,4.7c-0.2,0.6-2.4,5.8-2.6,6.2c-0.1,0.1-0.2,0.2-0.4,0.2c-0.2,0-0.3-0.2-0.4-0.4
				c-0.6-1.6-2-5.5-2.2-6l-0.2-0.6c-0.5-1.2-1.3-3.7-1.4-3.9c-0.2-0.3-0.4-0.5-0.8-0.5h-0.3c-0.1,0-0.1-0.1-0.1-0.2v-0.7
				c0-0.1,0.1-0.1,0.2-0.1s1.6,0.1,2.3,0.1c0.6,0,2.3-0.1,2.4-0.1C-92.4,137.5-92.3,137.6-92.3,137.7z"/>
		</g>
		<g>
			<rect x="-11.7" y="127" class="st1" width="0.6" height="48"/>
		</g>
		<g class="st0">
			<path class="st1" d="M7.8,141H7.7l-3.2,8.6c-0.1,0.2-0.2,0.4-0.4,0.4c-0.2,0-0.3-0.1-0.4-0.3l-3.8-10.8c-0.2-0.5-0.5-0.6-0.7-0.6
				h-0.4c-0.1,0-0.1-0.1-0.1-0.1v-0.4c0-0.1,0-0.1,0.1-0.1c0.1,0,0.7,0.1,2.4,0.1c1.2,0,1.9-0.1,2.1-0.1c0.1,0,0.1,0.1,0.1,0.1v0.4
				c0,0.1,0,0.1-0.1,0.1H2.9c-0.3,0-0.4,0.2-0.3,0.6l2.3,7.4H5c0.2-0.6,2.2-6,2.2-6.6c0-0.4-0.2-0.9-0.3-1.1
				c-0.2-0.2-0.4-0.3-0.5-0.3H6.1c-0.1,0-0.1,0-0.1-0.1v-0.4c0-0.1,0-0.1,0.1-0.1c0.2,0,0.7,0.1,2.2,0.1c1.4,0,2.1-0.1,2.2-0.1
				c0.1,0,0.1,0.1,0.1,0.2v0.4c0,0.1,0,0.1-0.1,0.1h-0.5c-0.3,0-0.4,0.4-0.3,0.7l2.3,7.3h0.1c0.8-2.3,2.3-6.6,2.3-7.5
				c0-0.2-0.2-0.4-0.5-0.4h-0.5c-0.1,0-0.1-0.1-0.1-0.2v-0.4c0-0.1,0-0.1,0.1-0.1c0.2,0,0.8,0.1,1.8,0.1c1,0,1.4-0.1,1.6-0.1
				c0.1,0,0.1,0,0.1,0.2v0.4c0,0.1,0,0.1-0.1,0.1h-0.3c-0.3,0-0.6,0.2-0.8,0.6c-0.2,0.5-3.6,9.8-4,10.6c-0.1,0.2-0.2,0.5-0.5,0.5
				c-0.2,0-0.3-0.2-0.4-0.5L7.8,141z"/>
			<path class="st1" d="M21.3,143.2c0.8,0,1.5-0.1,1.7-0.1c0.3-0.1,0.5-0.2,0.8-0.5c0.2-0.3,0.4-0.7,0.4-1.1c0-0.1,0.1-0.2,0.1-0.2
				l0.5,0.1c0.1,0,0.2,0,0.1,0.1c-0.1,0.3-0.1,1.2-0.1,1.8c0,0.8,0.1,1.6,0.1,1.9c0,0.1-0.1,0.1-0.1,0.1l-0.4,0.1
				c-0.1,0-0.1,0-0.1-0.1c-0.1-0.3-0.2-0.7-0.3-0.9c-0.2-0.3-0.6-0.5-0.9-0.6c-0.5-0.1-1-0.1-1.7-0.1v1c0,0.9,0.1,2.6,0.1,2.9
				c0,0.9,0.2,1.2,0.4,1.3c0.3,0.1,0.6,0.2,1.4,0.2c0.3,0,1,0,1.4-0.1c0.3,0,0.9-0.2,1.3-0.6c0.4-0.4,1.4-1.4,1.7-1.8
				c0.1-0.1,0.1-0.1,0.2-0.1l0.3,0.2c0.1,0,0.1,0.1,0.1,0.1l-0.8,2.6c-0.1,0.2-0.2,0.3-0.4,0.3c-0.1,0-0.5,0-1.5,0
				c-1.1,0-2.9,0-5.8,0c-0.6,0-1.1,0-1.4,0c-0.4,0-0.6,0-0.7,0c-0.1,0-0.2-0.1-0.2-0.2v-0.4c0-0.1,0.1-0.2,0.2-0.2H18
				c0.8,0,0.8-0.1,0.8-0.7v-5.7c0-1.4,0-3.5-0.1-3.7c-0.1-0.5-0.2-0.7-0.7-0.7h-0.7c-0.1,0-0.1-0.1-0.1-0.2v-0.4
				c0-0.1,0-0.1,0.1-0.1c0.4,0,1,0.1,2.5,0.1l6,0c0.3,0,0.6,0,0.7,0s0.1,0,0.1,0.1c0.1,0.2,0.6,2.6,0.7,2.7c0,0.1,0,0.1-0.1,0.2
				l-0.3,0.1c-0.1,0-0.2,0-0.2-0.1c-0.1-0.1-1.6-1.7-2-1.9c-0.4-0.2-0.8-0.4-1.3-0.5l-2.2-0.1L21.3,143.2z"/>
			<path class="st1" d="M32.8,144.4c0,0.3,0,4,0.1,4.6h1c0.8,0,1.6,0,2.5-0.1c0.9-0.1,2.1-2.1,2.3-2.8c0.1-0.1,0.1-0.2,0.2-0.1
				l0.3,0.1c0.1,0,0.1,0.1,0,0.2c-0.1,0.1-0.7,2.9-0.8,3.4c-0.4,0-5.3-0.1-6.9-0.1c-1.7,0-2.3,0.1-2.5,0.1c-0.1,0-0.1,0-0.1-0.2
				v-0.4c0-0.1,0-0.1,0.1-0.1h0.5c0.6,0,0.7-0.2,0.7-0.4c0-0.3,0.1-4.6,0.1-5.6v-1c0-1.1,0-2.9-0.1-3.2c0-0.4-0.1-0.6-0.5-0.6h-0.6
				c-0.1,0-0.1-0.1-0.1-0.2v-0.4c0-0.1,0-0.1,0.1-0.1c0.2,0,0.8,0.1,2.3,0.1c2,0,2.7-0.1,2.9-0.1c0.1,0,0.2,0.1,0.2,0.2v0.4
				c0,0.1,0,0.1-0.2,0.1h-0.8c-0.5,0-0.6,0.2-0.6,0.6c0,0.2-0.1,2.8-0.1,4V144.4z"/>
			<path class="st1" d="M41,141.9c0-0.4-0.1-2.9-0.1-3.1c-0.1-0.4-0.3-0.5-0.6-0.5h-0.8c-0.1,0-0.1,0-0.1-0.1v-0.5
				c0-0.1,0.1-0.1,0.1-0.1c0.2,0,1,0.1,2.7,0.1c0.4,0,2.1-0.1,2.5-0.1c2.3,0,4.1,0.2,5.8,1.5c1.1,0.9,1.9,2.3,1.9,4.3
				c0,2-0.6,3.2-1.7,4.5c-1.6,1.8-4.6,1.8-5.6,1.8c-0.3,0-2.3-0.1-3.2-0.1c-1.5,0-2.2,0.1-2.4,0.1c-0.1,0-0.1,0-0.1-0.2v-0.4
				c0-0.1,0.1-0.1,0.1-0.1h0.9c0.3,0,0.5-0.1,0.5-0.4c0.1-0.4,0.1-4.2,0.1-5.5V141.9z M43.6,143.5c0,0.2,0,3.1,0,4.2
				c0,0.3,0.1,0.6,0.3,0.9c0.2,0.3,0.8,0.4,1.4,0.4c1,0,2.3-0.5,3.2-1.7c0.7-0.9,1.2-2.3,1.2-3.9c0-1.4-0.6-2.8-1.4-3.7
				c-0.9-1-2.4-1.5-3.4-1.5c-0.5,0-0.7,0-1,0.1c-0.3,0.1-0.3,0.4-0.3,0.7c0,0.7,0,2.9,0,3.2V143.5z"/>
			<path class="st1" d="M56.8,148.9c-1.2-0.7-2.5-2.6-2.5-5c0-1,0.3-2.7,1.6-4.2c1.5-1.8,3.4-2.2,4.9-2.2c1.4,0,2.7,0.2,4.1,1.3
				c1.3,1,2.3,2.7,2.3,5.1c0,1.2-0.4,2.5-1.3,3.7c-1.1,1.4-2.5,2.4-5.2,2.4C59.6,150,58.1,149.7,56.8,148.9z M64.6,144
				c0-3.7-2.4-5.8-3.9-5.8c-0.3,0-1.2-0.1-2.2,0.9c-1,1-1.5,2.7-1.5,4.1c0,4.4,2.5,5.9,3.9,5.9C64.1,149.2,64.6,145.4,64.6,144z"/>
			<path class="st1" d="M79.4,144.8c0-1.5,0-2.3-0.1-3.2c0-0.7-0.1-2.3-0.2-2.6c-0.1-0.4-0.5-0.7-0.9-0.7h-0.5
				c-0.1,0-0.1-0.1-0.1-0.2v-0.4c0-0.1,0-0.1,0.2-0.1c0.2,0,0.7,0.1,2,0.1c1,0,1.4-0.1,1.6-0.1c0.2,0,0.2,0,0.2,0.1v0.4
				c0,0.1,0,0.2-0.1,0.2H81c-0.3,0-0.5,0.3-0.5,0.9c-0.1,1.1-0.4,5-0.4,7.2v2.9c0,0.3,0,0.6-0.3,0.6c-0.3,0-0.5-0.1-0.7-0.3
				c-0.3-0.3-1.1-1.2-2.1-2.4l-2.9-3.5c-0.3-0.3-2.6-3.3-3-3.8h-0.1v3.4c0,1.4,0.2,3.5,0.2,4.1c0,1,0.3,1.5,1.1,1.5h0.4
				c0.1,0,0.1,0.1,0.1,0.2v0.4c0,0.1,0,0.1-0.1,0.1c-0.2,0-1.2-0.1-2-0.1c-0.5,0-1.7,0.1-1.9,0.1c-0.1,0-0.1,0-0.1-0.2v-0.4
				c0-0.1,0-0.1,0.1-0.1h0.6c0.4,0,0.6-0.5,0.7-1.7c0-0.3,0.2-3,0.2-5.6v-1.5c0-1-0.6-2-1.5-2l-0.4,0c-0.1,0-0.1-0.1-0.1-0.1v-0.5
				c0-0.1,0-0.1,0.1-0.1s0.2,0,0.5,0c0.3,0,0.9,0,1.8,0c0.6,0,1.1,0,1.3,0c0.2,0,0.4,0.1,0.5,0.2l3.9,4.8l2.9,3.6h0.1V144.8z"/>
			<path class="st1" d="M88.1,148.4c-1.3-1.1-1.9-3.1-1.9-4.5c0-1.8,0.6-3.3,1.8-4.6c1-1,2.4-1.8,4.5-1.8c1.5,0,2.8,0.4,3.4,0.7
				c0.2,0.1,0.3,0.1,0.4,0l0.1-0.4c0-0.1,0.1-0.1,0.3-0.1s0.3,0,0.3,0.3c0,0.3,0.3,3.2,0.4,3.7c0,0.1,0,0.2-0.1,0.2l-0.4,0.1
				c-0.1,0-0.2,0-0.2-0.2c-0.2-0.7-0.6-1.5-1.4-2.3c-0.7-0.7-1.6-1.3-2.9-1.3c-2.5,0-3.5,2.3-3.5,4.8c0,1.1,0.3,3.2,1.5,4.4
				c1.1,1.1,2.1,1.3,2.7,1.3c1.9,0,3.4-0.9,4-1.8c0.1-0.1,0.2-0.2,0.3-0.1l0.3,0.3c0.1,0,0.1,0.1,0,0.2c-1,1.4-2.6,2.8-5,2.8
				C90.3,150,89.1,149.3,88.1,148.4z"/>
			<path class="st1" d="M101.2,148.9c-1.2-0.7-2.5-2.6-2.5-5c0-1,0.3-2.7,1.6-4.2c1.5-1.8,3.4-2.2,4.9-2.2c1.4,0,2.7,0.2,4.1,1.3
				c1.3,1,2.3,2.7,2.3,5.1c0,1.2-0.4,2.5-1.3,3.7c-1.1,1.4-2.5,2.4-5.2,2.4C104,150,102.5,149.7,101.2,148.9z M109,144
				c0-3.7-2.4-5.8-3.9-5.8c-0.3,0-1.2-0.1-2.2,0.9c-1,1-1.5,2.7-1.5,4.1c0,4.4,2.5,5.9,3.9,5.9C108.4,149.2,109,145.4,109,144z"/>
			<path class="st1" d="M116.1,148.9c-1.2-0.7-2.5-2.6-2.5-5c0-1,0.3-2.7,1.6-4.2c1.5-1.8,3.4-2.2,4.9-2.2c1.4,0,2.7,0.2,4.1,1.3
				c1.3,1,2.3,2.7,2.3,5.1c0,1.2-0.4,2.5-1.3,3.7c-1.1,1.4-2.5,2.4-5.2,2.4C118.9,150,117.4,149.7,116.1,148.9z M123.9,144
				c0-3.7-2.4-5.8-3.9-5.8c-0.3,0-1.2-0.1-2.2,0.9c-1,1-1.5,2.7-1.5,4.1c0,4.4,2.5,5.9,3.9,5.9C123.3,149.2,123.9,145.4,123.9,144z"
				/>
			<path class="st1" d="M132,145.2c0,0.8,0,3.1,0,3.3c0,0.4,0.2,0.5,0.5,0.5h0.9c0.1,0,0.1,0.1,0.1,0.1v0.4c0,0.1,0,0.1-0.2,0.1
				c-0.2,0-0.8-0.1-2.8-0.1c-1.5,0-2.2,0.1-2.3,0.1c-0.1,0-0.1-0.1-0.1-0.1v-0.5c0-0.1,0-0.1,0.1-0.1h0.4c0.6,0,0.7-0.1,0.7-0.5
				c0-0.2,0.1-2.8,0.1-4.8v-2c0-1.1,0-2.9,0-3.1c0-0.3-0.2-0.4-0.5-0.4h-0.8c-0.1,0-0.1,0-0.1-0.1v-0.4c0-0.1,0-0.1,0.1-0.1
				c0.2,0,0.8,0.1,2.6,0.1c0.3,0,1.3-0.1,1.9-0.1c2.1,0,3.1,0.2,4.1,0.9c0.7,0.5,1.2,1.5,1.2,2.6c0,2-1.6,3.4-4.5,3.4
				c-0.5,0-0.9,0-1.4-0.1V145.2z M132,143.9c0.4,0.1,0.8,0.1,1,0.1c0.5,0,1.4-0.5,1.8-1.1c0.3-0.5,0.4-1.2,0.4-1.8
				c0-2.3-1.7-2.8-2.4-2.8c-0.3,0-0.5,0-0.8,0.1V143.9z"/>
			<path class="st1" d="M143.1,143.2c0.8,0,1.5-0.1,1.7-0.1c0.3-0.1,0.5-0.2,0.8-0.5c0.2-0.3,0.4-0.7,0.4-1.1c0-0.1,0.1-0.2,0.1-0.2
				l0.5,0.1c0.1,0,0.2,0,0.1,0.1c-0.1,0.3-0.1,1.2-0.1,1.8c0,0.8,0.1,1.6,0.1,1.9c0,0.1-0.1,0.1-0.1,0.1l-0.4,0.1
				c-0.1,0-0.1,0-0.1-0.1c-0.1-0.3-0.2-0.7-0.3-0.9c-0.2-0.3-0.6-0.5-0.9-0.6c-0.5-0.1-1-0.1-1.7-0.1v1c0,0.9,0.1,2.6,0.1,2.9
				c0,0.9,0.2,1.2,0.4,1.3c0.3,0.1,0.6,0.2,1.4,0.2c0.3,0,1,0,1.4-0.1c0.3,0,0.9-0.2,1.3-0.6c0.4-0.4,1.4-1.4,1.7-1.8
				c0.1-0.1,0.1-0.1,0.2-0.1l0.3,0.2c0.1,0,0.1,0.1,0.1,0.1l-0.8,2.6c-0.1,0.2-0.2,0.3-0.4,0.3c-0.1,0-0.5,0-1.5,0
				c-1.1,0-2.9,0-5.8,0c-0.6,0-1.1,0-1.4,0c-0.4,0-0.6,0-0.7,0c-0.1,0-0.2-0.1-0.2-0.2v-0.4c0-0.1,0.1-0.2,0.2-0.2h0.5
				c0.8,0,0.8-0.1,0.8-0.7v-5.7c0-1.4,0-3.5-0.1-3.7c-0.1-0.5-0.2-0.7-0.7-0.7h-0.7c-0.1,0-0.1-0.1-0.1-0.2v-0.4
				c0-0.1,0-0.1,0.1-0.1c0.4,0,1,0.1,2.5,0.1l6,0c0.3,0,0.6,0,0.7,0s0.1,0,0.1,0.1c0.1,0.2,0.6,2.6,0.7,2.7c0,0.1,0,0.1-0.1,0.2
				l-0.3,0.1c-0.1,0-0.2,0-0.2-0.1c-0.1-0.1-1.6-1.7-2-1.9c-0.4-0.2-0.8-0.4-1.3-0.5l-2.2-0.1L143.1,143.2z"/>
			<path class="st1" d="M152.2,142c0-1.3,0-2.3,0-2.8c0-0.6-0.2-0.8-0.5-0.8H151c-0.1,0-0.1-0.1-0.1-0.1v-0.5c0-0.1,0-0.1,0.1-0.1
				c0.2,0,0.7,0.1,2.5,0.1c1,0,2.4-0.1,3.1-0.1c1.3,0,2.3,0.5,3,1.1c0.6,0.6,1,1.2,1,1.9c0,2.2-1.6,3.1-3.1,3.3v0.1
				c0.5,0.2,0.8,0.5,1.1,0.9c0.2,0.3,1.2,1.8,1.3,2c0.1,0.2,1,1.4,1.4,1.8c0.2,0.2,0.9,0.4,1.2,0.4c0.1,0,0.1,0.1,0.1,0.1v0.4
				c0,0.1,0,0.2-0.1,0.2c-0.1,0-0.6-0.1-1.9-0.1c-0.5,0-1.1,0-1.6,0.1c-0.5-0.4-1.6-2.4-1.9-2.9c-0.6-1.2-1.3-2.4-2.1-2.4h-0.6v0.9
				c0,1,0.1,2.9,0.1,3.1c0,0.4,0.2,0.7,0.4,0.7h0.7c0.1,0,0.1,0.1,0.1,0.1v0.4c0,0.1,0,0.2-0.3,0.2c0,0-0.4-0.1-2.2-0.1
				c-1.8,0-2.2,0.1-2.4,0.1c-0.1,0-0.1-0.1-0.1-0.2v-0.4c0-0.1,0-0.1,0.1-0.1h0.5c0.4,0,0.7-0.1,0.7-0.5c0-1.7,0-3.3,0-4.9V142z
				 M154.5,143.8c0.3,0,0.5,0,0.7,0c2.2,0,2.8-2.1,2.8-2.9c0-0.8-0.3-1.5-0.6-1.9c-0.6-0.5-1.4-0.7-1.9-0.7c-0.3,0-0.5,0-0.6,0.2
				c-0.1,0.1-0.2,0.3-0.2,0.5L154.5,143.8z"/>
			<path class="st1" d="M168.7,148.4c-1.3-1.1-1.9-3.1-1.9-4.5c0-1.8,0.6-3.3,1.8-4.6c1-1,2.4-1.8,4.5-1.8c1.5,0,2.8,0.4,3.4,0.7
				c0.2,0.1,0.3,0.1,0.4,0l0.1-0.4c0-0.1,0.1-0.1,0.3-0.1s0.3,0,0.3,0.3c0,0.3,0.3,3.2,0.4,3.7c0,0.1,0,0.2-0.1,0.2l-0.4,0.1
				c-0.1,0-0.2,0-0.2-0.2c-0.2-0.7-0.6-1.5-1.4-2.3c-0.7-0.7-1.6-1.3-2.9-1.3c-2.5,0-3.5,2.3-3.5,4.8c0,1.1,0.3,3.2,1.5,4.4
				c1.1,1.1,2.1,1.3,2.7,1.3c1.9,0,3.4-0.9,4-1.8c0.1-0.1,0.2-0.2,0.3-0.1l0.3,0.3c0.1,0,0.1,0.1,0,0.2c-1,1.4-2.6,2.8-5,2.8
				C170.9,150,169.7,149.3,168.7,148.4z"/>
			<path class="st1" d="M183.4,143.2c0.8,0,1.5-0.1,1.7-0.1c0.3-0.1,0.5-0.2,0.8-0.5c0.2-0.3,0.4-0.7,0.4-1.1c0-0.1,0.1-0.2,0.1-0.2
				l0.5,0.1c0.1,0,0.2,0,0.1,0.1c-0.1,0.3-0.1,1.2-0.1,1.8c0,0.8,0.1,1.6,0.1,1.9c0,0.1-0.1,0.1-0.1,0.1l-0.4,0.1
				c-0.1,0-0.1,0-0.1-0.1c-0.1-0.3-0.2-0.7-0.3-0.9c-0.2-0.3-0.6-0.5-0.9-0.6c-0.5-0.1-1-0.1-1.7-0.1v1c0,0.9,0.1,2.6,0.1,2.9
				c0,0.9,0.2,1.2,0.4,1.3c0.3,0.1,0.6,0.2,1.4,0.2c0.3,0,1,0,1.4-0.1c0.3,0,0.8-0.2,1.3-0.6c0.4-0.4,1.4-1.4,1.7-1.8
				c0.1-0.1,0.1-0.1,0.2-0.1l0.3,0.2c0.1,0,0.1,0.1,0.1,0.1l-0.8,2.6c-0.1,0.2-0.2,0.3-0.4,0.3c-0.1,0-0.5,0-1.5,0
				c-1.1,0-2.9,0-5.8,0c-0.6,0-1.1,0-1.4,0c-0.4,0-0.6,0-0.7,0c-0.1,0-0.2-0.1-0.2-0.2v-0.4c0-0.1,0.1-0.2,0.2-0.2h0.5
				c0.8,0,0.8-0.1,0.8-0.7v-5.7c0-1.4,0-3.5-0.1-3.7c-0.1-0.5-0.2-0.7-0.7-0.7h-0.7c-0.1,0-0.1-0.1-0.1-0.2v-0.4
				c0-0.1,0-0.1,0.1-0.1c0.4,0,1,0.1,2.5,0.1l6,0c0.3,0,0.6,0,0.7,0s0.1,0,0.1,0.1c0.1,0.2,0.6,2.6,0.7,2.7c0,0.1,0,0.1-0.1,0.2
				l-0.3,0.1c-0.1,0-0.2,0-0.2-0.1c-0.1-0.1-1.6-1.7-2-1.9c-0.4-0.2-0.8-0.4-1.3-0.5l-2.2-0.1L183.4,143.2z"/>
			<path class="st1" d="M201.5,144.8c0-1.5,0-2.3-0.1-3.2c0-0.7-0.1-2.3-0.2-2.6c-0.1-0.4-0.5-0.7-0.9-0.7h-0.5
				c-0.1,0-0.1-0.1-0.1-0.2v-0.4c0-0.1,0-0.1,0.2-0.1c0.2,0,0.7,0.1,2,0.1c1,0,1.4-0.1,1.6-0.1c0.2,0,0.2,0,0.2,0.1v0.4
				c0,0.1,0,0.2-0.1,0.2h-0.5c-0.3,0-0.5,0.3-0.5,0.9c-0.1,1.1-0.4,5-0.4,7.2v2.9c0,0.3,0,0.6-0.3,0.6c-0.3,0-0.5-0.1-0.7-0.3
				c-0.3-0.3-1.1-1.2-2.1-2.4l-2.9-3.5c-0.3-0.3-2.6-3.3-3-3.8h-0.1v3.4c0,1.4,0.2,3.5,0.2,4.1c0,1,0.3,1.5,1.1,1.5h0.4
				c0.1,0,0.1,0.1,0.1,0.2v0.4c0,0.1,0,0.1-0.1,0.1c-0.2,0-1.2-0.1-2-0.1c-0.5,0-1.7,0.1-1.9,0.1c-0.1,0-0.1,0-0.1-0.2v-0.4
				c0-0.1,0-0.1,0.1-0.1h0.6c0.4,0,0.6-0.5,0.7-1.7c0-0.3,0.2-3,0.2-5.6v-1.5c0-1-0.6-2-1.5-2l-0.4,0c-0.1,0-0.1-0.1-0.1-0.1v-0.5
				c0-0.1,0-0.1,0.1-0.1s0.2,0,0.5,0c0.3,0,0.9,0,1.8,0c0.6,0,1.1,0,1.3,0c0.2,0,0.4,0.1,0.5,0.2l3.9,4.8l2.9,3.6h0.1V144.8z"/>
			<path class="st1" d="M209.1,138.4h-0.6c-0.5,0-1.6,0-2.3,0.3c-0.4,0.3-1.1,1.3-1.5,1.9c-0.1,0.1-0.1,0.1-0.2,0.1l-0.4-0.1
				c-0.1,0-0.1-0.1-0.1-0.2c0.2-0.7,0.7-3,0.8-3.3c0.1-0.2,0.1-0.3,0.3-0.3s0.2,0.1,0.3,0.3c0.2,0.2,0.5,0.4,1.1,0.4
				c0.9,0.1,1.6,0.1,3.4,0.1h1c1.9,0,2.6-0.1,3.3-0.1c0.4,0,1-0.2,1.2-0.4c0.2-0.2,0.3-0.3,0.4-0.3s0.2,0.1,0.2,0.3l0.5,3.4
				c0,0.1,0,0.1-0.1,0.2l-0.4,0.1c-0.1,0-0.1,0-0.2-0.2c-0.4-0.6-1-1.5-1.5-1.9c-0.4-0.3-1.9-0.3-2.3-0.3h-0.6v4.7c0,0.2,0,5,0,5.3
				c0,0.4,0.2,0.7,0.6,0.7h0.8c0.2,0,0.2,0.1,0.2,0.2v0.4c0,0.1,0,0.1-0.2,0.1c-0.2,0-0.7-0.1-2.6-0.1c-1.8,0-2.5,0.1-2.8,0.1
				c-0.1,0-0.2-0.1-0.2-0.2v-0.3c0-0.1,0-0.2,0.1-0.2h0.9c0.3,0,0.5-0.2,0.6-0.5c0-0.4,0-5.6,0-5.9V138.4z"/>
			<path class="st1" d="M221.6,143.2c0.8,0,1.5-0.1,1.7-0.1c0.3-0.1,0.5-0.2,0.8-0.5c0.2-0.3,0.4-0.7,0.4-1.1c0-0.1,0.1-0.2,0.1-0.2
				l0.5,0.1c0.1,0,0.2,0,0.1,0.1c-0.1,0.3-0.1,1.2-0.1,1.8c0,0.8,0.1,1.6,0.1,1.9c0,0.1-0.1,0.1-0.1,0.1l-0.4,0.1
				c-0.1,0-0.1,0-0.1-0.1c-0.1-0.3-0.2-0.7-0.3-0.9c-0.2-0.3-0.6-0.5-0.9-0.6c-0.5-0.1-1-0.1-1.7-0.1v1c0,0.9,0.1,2.6,0.1,2.9
				c0,0.9,0.2,1.2,0.4,1.3c0.3,0.1,0.6,0.2,1.4,0.2c0.3,0,1,0,1.4-0.1c0.3,0,0.9-0.2,1.3-0.6c0.4-0.4,1.4-1.4,1.7-1.8
				c0.1-0.1,0.1-0.1,0.2-0.1l0.3,0.2c0.1,0,0.1,0.1,0.1,0.1l-0.8,2.6c-0.1,0.2-0.2,0.3-0.4,0.3c-0.1,0-0.5,0-1.5,0
				c-1.1,0-2.9,0-5.8,0c-0.6,0-1.1,0-1.4,0c-0.4,0-0.6,0-0.7,0c-0.1,0-0.2-0.1-0.2-0.2v-0.4c0-0.1,0.1-0.2,0.2-0.2h0.5
				c0.8,0,0.8-0.1,0.8-0.7v-5.7c0-1.4,0-3.5-0.1-3.7c-0.1-0.5-0.2-0.7-0.7-0.7h-0.7c-0.1,0-0.1-0.1-0.1-0.2v-0.4
				c0-0.1,0-0.1,0.1-0.1c0.4,0,1,0.1,2.5,0.1l6,0c0.3,0,0.6,0,0.7,0s0.1,0,0.1,0.1c0.1,0.2,0.6,2.6,0.7,2.7c0,0.1,0,0.1-0.1,0.2
				l-0.3,0.1c-0.1,0-0.2,0-0.2-0.1c-0.1-0.1-1.6-1.7-2-1.9c-0.4-0.2-0.8-0.4-1.3-0.5l-2.2-0.1L221.6,143.2z"/>
			<path class="st1" d="M230.6,142c0-1.3,0-2.3,0-2.8c0-0.6-0.2-0.8-0.5-0.8h-0.7c-0.1,0-0.1-0.1-0.1-0.1v-0.5c0-0.1,0-0.1,0.1-0.1
				c0.2,0,0.7,0.1,2.5,0.1c1,0,2.4-0.1,3.1-0.1c1.3,0,2.3,0.5,3,1.1c0.6,0.6,1,1.2,1,1.9c0,2.2-1.6,3.1-3.1,3.3v0.1
				c0.5,0.2,0.8,0.5,1.1,0.9c0.2,0.3,1.2,1.8,1.3,2c0.1,0.2,1,1.4,1.4,1.8c0.2,0.2,0.9,0.4,1.2,0.4c0.1,0,0.1,0.1,0.1,0.1v0.4
				c0,0.1,0,0.2-0.1,0.2c-0.1,0-0.6-0.1-1.9-0.1c-0.5,0-1.1,0-1.6,0.1c-0.5-0.4-1.6-2.4-1.9-2.9c-0.6-1.2-1.3-2.4-2.1-2.4H233v0.9
				c0,1,0.1,2.9,0.1,3.1c0,0.4,0.2,0.7,0.4,0.7h0.7c0.1,0,0.1,0.1,0.1,0.1v0.4c0,0.1,0,0.2-0.3,0.2c0,0-0.4-0.1-2.2-0.1
				c-1.8,0-2.2,0.1-2.4,0.1c-0.1,0-0.1-0.1-0.1-0.2v-0.4c0-0.1,0-0.1,0.1-0.1h0.5c0.4,0,0.7-0.1,0.7-0.5c0-1.7,0-3.3,0-4.9V142z
				 M233,143.8c0.3,0,0.5,0,0.7,0c2.2,0,2.8-2.1,2.8-2.9c0-0.8-0.3-1.5-0.6-1.9c-0.6-0.5-1.4-0.7-1.9-0.7c-0.3,0-0.5,0-0.6,0.2
				c-0.1,0.1-0.2,0.3-0.2,0.5L233,143.8z"/>
		</g>
	</g>
</g>
</svg>
